<?xml version="1.0" encoding="UTF-8" standalone="no"?><!DOCTYPE svg PUBLIC "-//W3C//DTD SVG 1.1//EN" "http://www.w3.org/Graphics/SVG/1.1/DTD/svg11.dtd"><svg width="100%" height="100%" viewBox="0 0 1024 1024" version="1.1" xmlns="http://www.w3.org/2000/svg" xmlns:xlink="http://www.w3.org/1999/xlink" xml:space="preserve" xmlns:serif="http://www.serif.com/" style="fill-rule:evenodd;clip-rule:evenodd;stroke-linejoin:round;stroke-miterlimit:2;"><g id="Background"><path d="M429.628,58.653c15.158,0.17 295.15,-0.136 320.438,0.115c158.008,1.572 159.084,-2.089 175.379,5.918c46.72,22.955 39.692,65.605 39.695,95.836c0.078,674.334 1.168,674.311 0.127,732.937c-0.126,7.092 -1.023,57.686 -54.25,70.133c-8.91,2.084 -9.087,1.646 -736.324,1.508c-43.679,-0.007 -95.336,8.466 -113.718,-52.06c-1.549,-5.099 -2.227,-5.208 -2.282,-178.921c0.004,-21.243 0.007,-42.487 0.011,-63.73c-0.09,-501.861 -0.685,-501.678 0.14,-545.293c0.59,-31.224 23.884,-64.235 66.297,-66.389c1.538,-0.078 280.128,-0.057 304.487,-0.055Z" style="fill:#ff6342;"/><path d="M455.042,402.826c3.263,0.368 3.783,-0.335 3.974,-0.593c11.433,-15.404 176.701,-197.822 192.188,-214.915c6.699,-7.395 8.103,-5.897 58.143,-5.871c147.881,0.076 149.841,-0.721 149.853,2.016c0.005,1.195 -454.623,506.01 -457.058,508.882c-6.053,7.14 -27.312,142.646 -29.856,147.63c-1.786,3.502 -29.188,3.371 -30.546,0.216c-0.542,-1.255 122.319,-650.023 124.116,-656.271c1.105,-3.838 29.206,-3.803 30.707,-0.296c0.554,1.292 0.159,1.393 -15.661,83.105c-2.107,10.881 -25.676,132.615 -25.862,136.096Z" style="fill:#fff;"/><path d="M306.646,560.493c-4.776,23.256 -34.404,182.632 -38.139,200.183c-5.389,25.329 -12.637,80.023 -17.741,81.264c-0.281,0.067 -84.394,1.034 -86.212,-0.427c-1.484,-1.193 -1.411,-1.889 17.397,-98.502c52.178,-268.008 106.26,-558.36 108.593,-560.494c2.248,-2.055 84.587,-1.392 85.789,-0.496c2.822,2.098 -3.245,27.71 -19.309,111.275c-4.105,21.361 -3.913,21.372 -50.378,267.196Z" style="fill:#fff;"/><path d="M809.591,824.88c3.603,4.957 12.442,15.068 9.456,17.135c-0.354,0.246 -203.198,0.605 -205.165,-0.253c-3.796,-1.659 -19.982,-27.669 -89.257,-126.697c-26.256,-37.535 -27.581,-37.16 -27.101,-41.067c0.4,-3.27 26.134,-29.914 83.337,-94.984c2.459,-2.797 5.014,-5.506 7.503,-8.277c17.16,-19.104 19.579,-26.046 24.274,-19.591c15.87,21.818 132.798,182.573 196.954,273.734Z" style="fill:#fff;"/></g></svg>