<?xml version="1.0" encoding="UTF-8" standalone="no"?>
<!DOCTYPE svg PUBLIC "-//W3C//DTD SVG 1.1//EN" "http://www.w3.org/Graphics/SVG/1.1/DTD/svg11.dtd">
<svg width="100%" height="100%" viewBox="0 0 1024 1024" version="1.1" xmlns="http://www.w3.org/2000/svg" xmlns:xlink="http://www.w3.org/1999/xlink" xml:space="preserve" xmlns:serif="http://www.serif.com/" style="fill-rule:evenodd;clip-rule:evenodd;stroke-linejoin:round;stroke-miterlimit:2;">
    <g id="Background">
        <path d="M465.5,255.959C474.062,256.055 632.216,255.882 646.5,256.024C735.751,256.912 736.359,254.844 745.563,259.367C771.953,272.333 767.983,296.424 767.985,313.5C768.029,694.399 768.645,694.386 768.057,727.501C767.986,731.507 767.479,760.085 737.414,767.116C732.381,768.293 732.281,768.046 321.5,767.968C296.828,767.964 267.649,772.75 257.266,738.562C256.391,735.682 256.008,735.62 255.977,637.498C255.979,625.499 255.981,613.499 255.983,601.5C255.932,318.023 255.596,318.126 256.062,293.49C256.395,275.853 269.553,257.207 293.51,255.99C294.379,255.946 451.741,255.958 465.5,255.959Z" style="fill:rgb(20,19,19);"/>
        <path d="M479.855,450.366C481.698,450.574 481.992,450.177 482.1,450.031C488.558,441.33 581.91,338.291 590.658,328.636C594.442,324.459 595.235,325.305 623.5,325.32C707.031,325.363 708.138,324.913 708.145,326.459C708.148,327.134 451.35,612.28 449.975,613.902C446.556,617.935 434.548,694.476 433.111,697.291C432.102,699.269 416.624,699.195 415.857,697.413C415.551,696.704 484.949,330.246 485.964,326.717C486.588,324.549 502.461,324.569 503.309,326.55C503.622,327.28 503.399,327.337 494.463,373.492C493.273,379.638 479.96,448.4 479.855,450.366Z" style="fill:rgb(249,3,1);"/>
        <path d="M396.033,539.424C393.335,552.56 376.6,642.584 374.49,652.498C371.446,666.805 367.352,697.699 364.469,698.4C364.31,698.438 316.799,698.984 315.772,698.159C314.934,697.485 314.975,697.092 325.599,642.52C355.072,491.135 385.62,327.129 386.938,325.924C388.208,324.763 434.717,325.138 435.396,325.644C436.99,326.829 433.563,341.296 424.489,388.498C422.17,400.564 422.279,400.57 396.033,539.424Z" style="fill:rgb(248,3,2);"/>
        <path d="M680.123,688.764C682.158,691.564 687.151,697.275 685.464,698.443C685.264,698.582 570.687,698.785 569.576,698.3C567.432,697.363 558.289,682.671 519.159,626.735C504.328,605.533 503.58,605.745 503.851,603.538C504.077,601.691 518.613,586.641 550.924,549.886C552.313,548.306 553.756,546.776 555.162,545.211C564.855,534.42 566.221,530.499 568.873,534.145C577.837,546.469 643.884,637.272 680.123,688.764Z" style="fill:rgb(249,3,1);"/>
    </g>
</svg>
